<svg width="34" height="34" viewBox="0 0 34 34" fill="none" xmlns="http://www.w3.org/2000/svg">
<g clip-path="url(#clip0_1_4919)">
<path d="M32.7873 19.6728C33.8012 11.1385 32.3002 5.7505 29.5928 3.31352L29.5942 3.31211C25.2243 -0.849588 10.4665 -1.46556 5.23858 3.49902C2.89081 5.9275 2.06385 9.49164 1.97323 13.904C1.8826 18.3177 1.77498 26.5859 9.47957 28.8289H9.48665L9.47957 32.2542C9.47957 32.2542 9.42718 33.6419 10.3136 33.9209C11.3275 34.2494 11.7863 33.6051 14.9398 29.8385C20.213 30.2959 24.2629 29.248 24.7231 29.0951C25.7879 28.7382 31.8131 27.941 32.7873 19.6728ZM15.4594 27.4284C15.4594 27.4284 12.1219 31.5901 11.0839 32.6705C10.7441 33.0217 10.3717 32.9891 10.3773 32.2924C10.3773 31.8351 10.4028 26.6057 10.4028 26.6057C3.8707 24.7337 4.25586 17.6932 4.32666 14.0102C4.39746 10.3257 5.07149 7.30813 7.05959 5.27613C11.6461 0.975667 24.5843 1.93715 27.8808 5.03541C31.9108 8.60804 30.4764 18.7015 30.4849 19.0455C29.6565 25.9472 24.774 26.3848 23.8763 26.6836C23.4925 26.811 19.9312 27.7272 15.4594 27.4284Z" fill="#8E24AA"/>
<path d="M17.3073 6.08423C16.7621 6.08423 16.7621 6.93384 17.3073 6.94092C21.537 6.97349 25.0204 9.92165 25.0586 15.3294C25.0586 15.9001 25.8941 15.893 25.887 15.3224H25.8856C25.8403 9.49543 22.0368 6.1168 17.3073 6.08423Z" fill="#8E24AA"/>
<path d="M22.8695 14.4337C22.8568 14.9973 23.6908 15.0242 23.6979 14.4535C23.7673 11.2406 21.7862 8.59401 18.0635 8.31506C17.5183 8.27541 17.4617 9.1321 18.0054 9.17175C21.234 9.41672 22.9346 11.6201 22.8695 14.4337Z" fill="#8E24AA"/>
<path d="M21.9776 18.0877C21.2781 17.6827 20.5658 17.9348 20.2713 18.3327L19.6553 19.1299C19.3424 19.5349 18.7576 19.4811 18.7576 19.4811C14.4897 18.3525 13.3484 13.8864 13.3484 13.8864C13.3484 13.8864 13.296 13.2817 13.6868 12.9574L14.4571 12.3202C14.8423 12.0144 15.0858 11.278 14.6936 10.5544C13.6457 8.66123 12.942 8.00844 12.5837 7.50717C12.207 7.03563 11.6406 6.92943 11.0516 7.24803H11.0388C9.81397 7.96454 8.47299 9.30552 8.90205 10.6861C9.63413 12.1418 10.9794 16.7821 15.2671 20.2882C17.2821 21.9464 20.471 23.6456 21.8247 24.0378L21.8374 24.0577C23.1713 24.5023 24.4684 23.1089 25.1608 21.8472V21.8373C25.4681 21.227 25.3661 20.6493 24.9173 20.2712C24.1215 19.4952 22.9207 18.6385 21.9776 18.0877Z" fill="#8E24AA"/>
<path d="M18.6469 11.4749C20.0078 11.5542 20.6676 12.2651 20.7384 13.725C20.7639 14.2956 21.5923 14.256 21.5668 13.6853C21.4762 11.7794 20.4821 10.7173 18.6923 10.6182C18.1471 10.5856 18.0961 11.4423 18.6469 11.4749Z" fill="#8E24AA"/>
</g>
<defs>
<clipPath id="clip0_1_4919">
<rect width="33.9846" height="33.9846" fill="white"/>
</clipPath>
</defs>
</svg>
