<svg width="34" height="34" viewBox="0 0 34 34" fill="none" xmlns="http://www.w3.org/2000/svg">
<g clip-path="url(#clip0_1_4928)">
<path d="M17.0122 0H17.0037C7.63454 0 0.015625 7.62104 0.015625 16.9923C0.015625 20.7093 1.21358 24.1545 3.25053 26.9519L1.13287 33.2645L7.66428 31.1766C10.3512 32.9565 13.5564 33.9846 17.0122 33.9846C26.3813 33.9846 34.0002 26.3614 34.0002 16.9923C34.0002 7.62317 26.3813 0 17.0122 0Z" fill="#4CAF50"/>
<path d="M26.897 23.9955C26.487 25.1531 24.86 26.1131 23.5622 26.3935C22.6744 26.5826 21.5147 26.7334 17.6107 25.1148C12.6171 23.046 9.40128 17.9717 9.15065 17.6425C8.91063 17.3133 7.13281 14.9556 7.13281 12.5172C7.13281 10.0788 8.37113 8.89146 8.87027 8.38169C9.28021 7.96326 9.95778 7.77209 10.6077 7.77209C10.818 7.77209 11.0071 7.78272 11.177 7.79121C11.6761 7.81245 11.9268 7.84219 12.256 8.63021C12.6659 9.61788 13.6642 12.0563 13.7832 12.3069C13.9042 12.5575 14.0253 12.8974 13.8554 13.2266C13.6961 13.5665 13.5559 13.7173 13.3053 14.0061C13.0546 14.295 12.8167 14.5159 12.5661 14.826C12.3367 15.0958 12.0776 15.3846 12.3664 15.8838C12.6553 16.3723 13.6536 18.0014 15.1234 19.3099C17.0202 20.9985 18.558 21.538 19.1081 21.7674C19.5181 21.9373 20.0066 21.8969 20.3061 21.5783C20.6863 21.1684 21.1557 20.4887 21.6336 19.8196C21.9734 19.3396 22.4025 19.2801 22.8528 19.45C23.3116 19.6093 25.7394 20.8094 26.2385 21.0579C26.7377 21.3086 27.0669 21.4275 27.188 21.6378C27.3069 21.8481 27.3069 22.8358 26.897 23.9955Z" fill="#FAFAFA"/>
</g>
<defs>
<clipPath id="clip0_1_4928">
<rect width="33.9846" height="33.9846" fill="white" transform="translate(0.015625)"/>
</clipPath>
</defs>
</svg>
